<?xml version="1.0" standalone="no"?>
<!DOCTYPE svg PUBLIC "-//W3C//DTD SVG 20010904//EN"
 "http://www.w3.org/TR/2001/REC-SVG-20010904/DTD/svg10.dtd">
<svg version="1.0" xmlns="http://www.w3.org/2000/svg"
 width="177.000000pt" height="177.000000pt" viewBox="0 0 177.000000 177.000000"
 preserveAspectRatio="xMidYMid meet">
<metadata>
Created by potrace 1.11, written by Peter Selinger 2001-2013
</metadata>
<g transform="translate(0.000000,177.000000) scale(0.100000,-0.100000)"
fill="#000000" stroke="none">
<path d="M554 1746 c-124 -33 -194 -68 -263 -132 -83 -76 -133 -174 -139 -271
-8 -122 38 -201 145 -250 46 -21 66 -25 132 -22 64 3 85 9 119 32 64 42 95 96
95 165 0 90 -46 155 -129 182 -44 15 -127 7 -161 -15 -29 -20 -48 -8 -56 33
-15 79 127 189 287 222 182 37 337 -86 397 -317 22 -87 21 -164 -8 -308 -30
-154 -83 -274 -192 -436 -124 -185 -249 -303 -513 -484 -116 -79 -132 -98
-110 -133 15 -22 391 193 617 352 195 139 312 269 409 460 76 148 101 243 100
386 0 132 -20 203 -81 298 -102 160 -257 245 -468 257 -75 5 -106 1 -181 -19z"/>
<path d="M1433 1560 c-39 -24 -53 -48 -53 -95 0 -79 58 -132 133 -122 112 15
142 174 42 222 -44 20 -83 19 -122 -5z"/>
<path d="M1444 1200 c-77 -31 -86 -151 -14 -207 26 -21 114 -16 143 7 44 34
56 118 24 160 -34 45 -99 62 -153 40z"/>
</g>
</svg>
